<?xml version="1.0" standalone="no"?>
<!DOCTYPE svg PUBLIC "-//W3C//DTD SVG 1.1//EN" "http://www.w3.org/Graphics/SVG/1.1/DTD/svg11.dtd" >
<svg xmlns="http://www.w3.org/2000/svg">
<metadata></metadata>
<defs>
<font id="formularmedium" horiz-adv-x="565" >
<font-face units-per-em="2048" ascent="1638" descent="-410" />
<missing-glyph horiz-adv-x="569" />
<glyph horiz-adv-x="0" />
<glyph horiz-adv-x="682" />
<glyph horiz-adv-x="0" />
<glyph horiz-adv-x="0" />
<glyph unicode="&#xd;" horiz-adv-x="569" />
<glyph unicode=" "  horiz-adv-x="569" />
<glyph unicode="&#x09;" horiz-adv-x="569" />
<glyph unicode="&#xa0;" horiz-adv-x="569" />
<glyph unicode="!" horiz-adv-x="675" d="M205 0v274h264v-274h-264zM219 864v598h236v-598l-43 -450h-150z" />
<glyph unicode="&#x22;" horiz-adv-x="886" d="M154 907v555h213v-555h-213zM520 907v555h213v-555h-213z" />
<glyph unicode="#" horiz-adv-x="1265" d="M66 381v180h229l51 309h-209v181h236l61 383h184l-59 -383h254l61 383h185l-62 -383h203v-181h-229l-49 -309h206v-180h-235l-59 -381h-189l62 381h-254l-60 -381h-188l61 381h-200zM481 561h254l49 309h-254z" />
<glyph unicode="$" horiz-adv-x="1312" d="M94 424h236q20 -106 88 -167t170 -73v467l-90 21q-355 79 -355 377q0 165 119.5 283t325.5 130v172h129v-176q185 -17 303.5 -125.5t138.5 -275.5h-233q-18 81 -71 132.5t-138 61.5v-409l94 -21q181 -32 284 -134.5t103 -276.5q0 -82 -32.5 -157.5t-92 -136t-152.5 -99 t-206 -44.5v-174h-127v176q-219 17 -344.5 135t-149.5 314zM379 1057q0 -83 47 -124.5t162 -68.5v391q-94 -6 -151.5 -59.5t-57.5 -138.5zM717 180q107 5 176.5 65.5t69.5 153.5q0 172 -209 222l-37 8v-449z" />
<glyph unicode="%" horiz-adv-x="1802" d="M88 1075q0 168 87 277.5t247 109.5t248 -110t88 -277q0 -171 -88 -279t-248 -108q-161 0 -247.5 107.5t-86.5 279.5zM254 1075q0 -109 42.5 -173t125.5 -64q85 0 127.5 64t42.5 173q0 108 -43 173t-127 65q-83 0 -125.5 -65t-42.5 -173zM377 0l868 1434h180l-866 -1434 h-182zM1042 360q0 168 88.5 278t247.5 110t247.5 -110t88.5 -278q0 -171 -88 -279t-248 -108t-248 108t-88 279zM1208 360q0 -109 42.5 -173t127.5 -64q84 0 127 64.5t43 172.5q0 107 -43.5 172.5t-126.5 65.5q-84 0 -127 -65t-43 -173z" />
<glyph unicode="&#x26;" horiz-adv-x="1521" d="M113 391q0 72 21 134t60 110t78.5 82.5t92.5 68.5v50q-75 89 -106.5 150.5t-31.5 146.5q0 144 100.5 236.5t264.5 92.5q168 0 277.5 -88t109.5 -237q0 -109 -65 -187.5t-207 -177.5l311 -321q61 101 84 249h223q-37 -234 -154 -403l291 -297h-284l-123 125h-49 q-181 -152 -408 -152q-219 0 -352 109.5t-133 308.5zM342 397q0 -108 72 -166.5t192 -58.5q167 0 281 123l-355 367l-59 -39q-131 -88 -131 -226zM440 1128q0 -55 28.5 -98.5t76.5 -89.5l39 -37l67 49q59 45 87 85t28 93q0 66 -48.5 106t-119.5 40t-114.5 -39t-43.5 -109z " />
<glyph unicode="'" horiz-adv-x="520" d="M154 907v555h213v-555h-213z" />
<glyph unicode="(" horiz-adv-x="634" d="M94 639q0 526 314 915h208q-315 -425 -315 -915q0 -149 27 -287t76 -254t102 -206.5t121 -180.5h-209q-324 387 -324 928z" />
<glyph unicode=")" horiz-adv-x="634" d="M8 -289q68 90 121 180.5t102 206.5t76 254t27 287q0 489 -316 915h209q314 -389 314 -915q0 -541 -324 -928h-209z" />
<glyph unicode="*" horiz-adv-x="995" d="M55 1081l54 162l315 -117l-10 336h168l-13 -336l318 117l53 -162l-324 -94l207 -264l-137 -102l-190 278l-187 -278l-137 102l205 264z" />
<glyph unicode="+" horiz-adv-x="1388" d="M170 489v197h424v424h199v-424h426v-197h-426v-423h-199v423h-424z" />
<glyph unicode="," d="M135 -264l135 219v45h-120v274h264v-319l-135 -219h-144z" />
<glyph unicode="-" horiz-adv-x="786" d="M98 471v203h590v-203h-590z" />
<glyph unicode="." d="M150 0v274h264v-274h-264z" />
<glyph unicode="/" horiz-adv-x="866" d="M-4 -289l618 1843h197l-612 -1843h-203z" />
<glyph unicode="0" horiz-adv-x="1302" d="M106 717q0 190 41 335t115.5 233.5t172 132.5t216.5 44q118 0 215.5 -44t172 -132.5t116 -233.5t41.5 -335q0 -189 -41.5 -334t-115.5 -233.5t-172 -132.5t-216 -44q-119 0 -217 44t-172 132.5t-115 233.5t-41 334zM346 717q0 -114 16 -206.5t50.5 -167.5t95 -116 t143.5 -41t143.5 41t95 116t50.5 167.5t16 206.5q0 115 -16 207.5t-50.5 167.5t-95 116t-143.5 41t-143.5 -41t-95 -116t-50.5 -167.5t-16 -207.5z" />
<glyph unicode="1" horiz-adv-x="1060" d="M113 997v240l286 197h285v-1225h305v-209h-874v209h331v981h-49z" />
<glyph unicode="2" horiz-adv-x="1218" d="M104 1020q12 216 147 329t355 113q216 0 348.5 -117t132.5 -331q0 -256 -290 -488l-332 -268v-49h663v-209h-1022v256l515 406q47 37 81.5 70t70.5 78t55.5 96.5t19.5 105.5q0 115 -67 176t-181 61q-109 0 -177.5 -57t-80.5 -172h-238z" />
<glyph unicode="3" horiz-adv-x="1202" d="M57 420h240q10 -109 88.5 -171.5t196.5 -62.5q133 0 210.5 72t77.5 197t-74.5 197.5t-211.5 72.5q-76 0 -129 -12v217l309 252v49h-608v203h880v-252l-311 -252v-51q168 -8 275.5 -119.5t107.5 -304.5q0 -222 -146 -352t-380 -130q-227 0 -372 127t-153 320z" />
<glyph unicode="4" horiz-adv-x="1275" d="M76 322v258l631 854h297v-904h186v-208h-186v-322h-232v322h-696zM311 530h467v633h-49l-418 -583v-50z" />
<glyph unicode="5" horiz-adv-x="1249" d="M113 420h237q13 -115 85.5 -174.5t191.5 -59.5q129 0 204.5 80t75.5 217q0 135 -75.5 215t-200.5 80q-171 0 -256 -121h-230l64 777h854v-203h-666l-26 -350h49q54 44 114 67t152 23q203 0 332 -136t129 -346q0 -232 -142.5 -374t-369.5 -142q-237 0 -373.5 124.5 t-148.5 322.5z" />
<glyph unicode="6" horiz-adv-x="1245" d="M106 684q0 169 34 308.5t101.5 245.5t177 165t251.5 59q185 0 306.5 -101.5t147.5 -258.5h-235q-24 77 -77 117.5t-146 40.5q-148 0 -234 -113.5t-96 -327.5h49q116 125 317 125q197 0 329 -132t132 -339q0 -137 -60 -250t-177 -181.5t-271 -68.5q-123 0 -220.5 39 t-172.5 121t-115.5 221.5t-40.5 329.5zM375 467q0 -136 77.5 -212.5t198.5 -76.5t197 75t76 212q0 136 -76.5 208t-198.5 72q-121 0 -197.5 -73t-76.5 -205z" />
<glyph unicode="7" horiz-adv-x="1148" d="M98 1227v207h946v-254l-595 -1180h-250l600 1178v49h-701z" />
<glyph unicode="8" horiz-adv-x="1273" d="M100 397q0 69 20 127.5t53.5 99t69 67t74.5 42.5v49q-68 34 -120 109.5t-52 185.5q0 169 135 277t357 108q220 0 354.5 -108t134.5 -277q0 -110 -52 -184t-120 -111v-49q39 -16 74.5 -42.5t69 -67t53.5 -99t20 -127.5q0 -181 -144 -302.5t-390 -121.5q-247 0 -392 121.5 t-145 302.5zM338 420q0 -109 78 -175.5t221 -66.5q140 0 219.5 67t79.5 175t-79.5 175t-219.5 67q-143 0 -221 -66.5t-78 -175.5zM377 1059q0 -96 73.5 -154.5t186.5 -58.5q112 0 185 58t73 155q0 96 -72.5 153.5t-185.5 57.5t-186.5 -57.5t-73.5 -153.5z" />
<glyph unicode="9" horiz-adv-x="1245" d="M82 963q0 137 60 249.5t177 181t271 68.5q123 0 220.5 -38.5t172.5 -120.5t115.5 -221.5t40.5 -329.5q0 -134 -21 -250.5t-65.5 -214.5t-110.5 -167.5t-159.5 -108t-207.5 -38.5q-185 0 -306.5 101.5t-147.5 259.5h235q24 -77 77.5 -117.5t146.5 -40.5q148 0 233.5 113 t95.5 327h-49q-115 -124 -317 -124q-197 0 -329 132t-132 339zM322 971q0 -136 76 -208.5t198 -72.5q121 0 197.5 73.5t76.5 205.5q0 135 -77.5 211.5t-198.5 76.5t-196.5 -74.5t-75.5 -211.5z" />
<glyph unicode=":" d="M150 0v274h264v-274h-264zM150 768v274h264v-274h-264z" />
<glyph unicode=";" d="M135 -264l135 219v45h-120v274h264v-319l-135 -219h-144zM150 768v274h264v-274h-264z" />
<glyph unicode="&#x3c;" horiz-adv-x="1372" d="M170 502v170l1032 458v-204l-719 -316v-49l719 -313v-205z" />
<glyph unicode="=" horiz-adv-x="1384" d="M170 279v198h1044v-198h-1044zM170 696v199h1044v-199h-1044z" />
<glyph unicode="&#x3e;" horiz-adv-x="1372" d="M170 43v205l717 313v49l-717 316v204l1032 -458v-170z" />
<glyph unicode="?" horiz-adv-x="1153" d="M84 1042q5 201 130.5 324t346.5 123q222 0 346.5 -113.5t124.5 -298.5q0 -60 -14 -111.5t-32.5 -86t-57 -74t-65.5 -61.5t-81 -62q-79 -57 -105 -96t-26 -117v-55h-235v55q0 84 23.5 143.5t65 103.5t126.5 111q86 61 125 113.5t39 136.5q0 87 -61 147t-169 60 q-238 0 -246 -242h-235zM399 0v274h265v-274h-265z" />
<glyph unicode="@" horiz-adv-x="1998" d="M111 432q0 209 70 391t194.5 314t305.5 208t394 76q131 0 252.5 -32t223.5 -95t178 -151.5t118.5 -208t42.5 -256.5q0 -166 -50.5 -301t-156.5 -220t-251 -85q-190 0 -242 118h-41q-101 -118 -260 -118q-154 0 -242 98.5t-88 271.5q0 136 52.5 251.5t154 187t231.5 71.5 q76 0 131 -28.5t78 -67.5h41l17 68h188l-86 -521q-10 -45 -10 -100q0 -104 114 -104q53 0 102.5 30t91 87t66.5 151.5t25 212.5q0 276 -190 448t-508 172q-172 0 -321 -62t-257.5 -173.5t-170.5 -274.5t-62 -356q0 -112 25 -214t79.5 -191.5t134.5 -155t196.5 -103.5 t258.5 -38q254 0 469 141l59 -106q-239 -156 -538 -156q-248 0 -434 103t-285.5 289t-99.5 429zM768 449q0 -105 42.5 -161.5t127.5 -56.5q110 0 181 99t71 248q0 215 -174 215q-110 0 -179 -103.5t-69 -240.5z" />
<glyph unicode="A" horiz-adv-x="1443" d="M39 0l485 1462h394l487 -1462h-252l-135 420h-600l-133 -420h-246zM487 639h459l-186 584h-88z" />
<glyph unicode="B" horiz-adv-x="1460" d="M178 0v1462h662q227 0 351 -108t124 -271q0 -98 -40 -174.5t-114 -117.5v-50q88 -39 142.5 -126.5t54.5 -196.5q0 -187 -128 -302.5t-372 -115.5h-680zM424 213h401q148 0 214.5 56.5t66.5 164.5t-66 163.5t-215 55.5h-401v-440zM424 862h393q130 0 188 49.5t58 145.5 t-57.5 144t-188.5 48h-393v-387z" />
<glyph unicode="C" horiz-adv-x="1490" d="M106 731q0 221 80 391.5t238 268.5t373 98q230 0 383.5 -117t193.5 -315h-258q-36 105 -113.5 157t-205.5 52q-110 0 -195.5 -42.5t-138.5 -117t-80 -169.5t-27 -206t27 -206t79 -169t137.5 -116.5t195.5 -42.5q134 0 221.5 63.5t116.5 181.5h258q-38 -212 -195 -340.5 t-401 -128.5q-215 0 -372.5 98t-237 268.5t-79.5 391.5z" />
<glyph unicode="D" horiz-adv-x="1540" d="M178 0v1462h580q220 0 373.5 -91.5t228 -254.5t74.5 -385t-74.5 -384.5t-228 -254.5t-373.5 -92h-580zM424 223h313q119 0 207.5 39.5t139.5 110.5t75.5 160t24.5 198q0 87 -14.5 161t-48.5 139t-85 110.5t-127 71.5t-172 26h-313v-1016z" />
<glyph unicode="E" horiz-adv-x="1349" d="M178 0v1462h1051v-223h-805v-377h637v-219h-637v-420h831v-223h-1077z" />
<glyph unicode="F" horiz-adv-x="1314" d="M178 0v1462h1051v-223h-805v-401h643v-220h-643v-618h-246z" />
<glyph unicode="G" horiz-adv-x="1542" d="M106 731q0 164 46 302t132 239.5t218.5 159t298.5 57.5q238 0 389.5 -114t193.5 -312h-256q-61 203 -327 203q-111 0 -197 -41.5t-139.5 -115t-81 -169.5t-27.5 -209t27 -208.5t80.5 -169.5t140 -116t197.5 -42q185 0 279.5 103.5t99.5 287.5h-400v209h647v-160 q0 -104 -21.5 -198t-69.5 -180t-119.5 -148t-178.5 -99t-239 -37q-166 0 -298 57.5t-218 159t-131.5 239.5t-45.5 302z" />
<glyph unicode="H" horiz-adv-x="1576" d="M178 0v1462h246v-594h731v594h246v-1462h-246v639h-731v-639h-246z" />
<glyph unicode="I" horiz-adv-x="622" d="M188 0v1462h246v-1462h-246z" />
<glyph unicode="J" horiz-adv-x="1214" d="M68 453h245q10 -128 74 -192t176 -64q109 0 170.5 71.5t61.5 210.5v983h245v-983q0 -239 -126.5 -372.5t-352.5 -133.5q-216 0 -348.5 126t-144.5 354z" />
<glyph unicode="K" horiz-adv-x="1507" d="M178 0v1462h246v-661l674 661h291l-445 -454l504 -1008h-260l-406 791h-49l-309 -304v-487h-246z" />
<glyph unicode="L" horiz-adv-x="1304" d="M178 0v1462h246v-1231h797v-231h-1043z" />
<glyph unicode="M" horiz-adv-x="1785" d="M178 0v1462h389l303 -637h50l299 637h391v-1462h-234v1169h-49l-309 -641h-250l-307 641h-49v-1169h-234z" />
<glyph unicode="N" horiz-adv-x="1585" d="M178 0v1462h346l602 -1106h50v1106h233v-1462h-346l-602 1106h-49v-1106h-234z" />
<glyph unicode="O" horiz-adv-x="1607" d="M106 731q0 161 46 298.5t132.5 240t220 161t300.5 58.5q166 0 299.5 -58.5t219.5 -161t131.5 -240t45.5 -298.5t-45.5 -298.5t-131.5 -240t-219.5 -161t-299.5 -58.5q-167 0 -300.5 58.5t-220 161t-132.5 240t-46 298.5zM356 731q0 -111 27 -206t80.5 -169t141 -116.5 t200.5 -42.5q112 0 199.5 42.5t140 116.5t79.5 169t27 206t-27 206t-79.5 169.5t-140 117t-199.5 42.5q-113 0 -200.5 -42.5t-141 -117t-80.5 -169.5t-27 -206z" />
<glyph unicode="P" horiz-adv-x="1435" d="M178 0v1462h643q244 0 378 -119t134 -331q0 -216 -133.5 -336.5t-378.5 -120.5h-397v-555h-246zM424 772h360q158 0 228.5 61t70.5 177q0 117 -70 176t-229 59h-360v-473z" />
<glyph unicode="Q" horiz-adv-x="1607" d="M106 731q0 161 46 298.5t132.5 240t220 161t300.5 58.5q166 0 299.5 -58.5t219.5 -161t131.5 -240t45.5 -298.5q0 -170 -51.5 -314.5t-149.5 -248.5l193 -315h-236l-116 196q-143 -76 -336 -76q-167 0 -300.5 58.5t-220 161t-132.5 240t-46 298.5zM356 731 q0 -111 27 -206t80.5 -169t141 -116.5t200.5 -42.5q128 0 217 51l-246 414h225l166 -273q84 136 84 342q0 111 -27 206t-79.5 169.5t-140 117t-199.5 42.5q-113 0 -200.5 -42.5t-141 -117t-80.5 -169.5t-27 -206z" />
<glyph unicode="R" horiz-adv-x="1470" d="M178 0v1462h668q237 0 367 -116t130 -324q0 -271 -219 -383l226 -639h-250l-207 586q-29 -4 -129 -4h-340v-582h-246zM424 795h387q149 0 216 58t67 167q0 113 -66 169t-217 56h-387v-450z" />
<glyph unicode="S" horiz-adv-x="1386" d="M94 428h250q44 -240 367 -240q140 0 226.5 59t86.5 165q0 96 -56.5 145.5t-164.5 71.5l-285 55q-175 33 -269.5 129t-94.5 256q0 88 35.5 164t101 133t167.5 90t228 33q232 0 380 -111.5t173 -300.5h-250q-24 100 -98 148.5t-209 48.5q-122 0 -201.5 -51t-79.5 -148 q0 -44 16.5 -76t48.5 -52t66.5 -32t81.5 -20q33 -7 275 -53q383 -84 383 -420q0 -91 -36 -171t-105 -142.5t-180 -99t-251 -36.5q-262 0 -423.5 124.5t-182.5 330.5z" />
<glyph unicode="T" horiz-adv-x="1251" d="M35 1245v217h1182v-217h-467v-1245h-246v1245h-469z" />
<glyph unicode="U" horiz-adv-x="1536" d="M174 530v932h246v-925q0 -157 90.5 -248.5t257.5 -91.5q168 0 258 91.5t90 248.5v925h246v-932q0 -266 -154 -411.5t-440 -145.5t-440 145.5t-154 411.5z" />
<glyph unicode="V" horiz-adv-x="1406" d="M39 1462h256l360 -1220h99l360 1220h254l-448 -1462h-433z" />
<glyph unicode="W" horiz-adv-x="1847" d="M115 1462h237l140 -1175h49l223 706h319l226 -706h49l141 1175h234l-181 -1462h-372l-232 760h-49l-233 -760h-373z" />
<glyph unicode="X" horiz-adv-x="1374" d="M41 0l420 770l-361 692h258l295 -559h70l301 559h256l-367 -684l420 -778h-276l-336 633h-70l-344 -633h-266z" />
<glyph unicode="Y" horiz-adv-x="1353" d="M33 1462h264l350 -624h58l350 624h264l-520 -923v-539h-246v539z" />
<glyph unicode="Z" horiz-adv-x="1343" d="M94 0v274l815 914v51h-759v223h1067v-274l-814 -914v-51h844v-223h-1153z" />
<glyph unicode="[" horiz-adv-x="722" d="M150 -289v1843h458v-176h-252v-1491h252v-176h-458z" />
<glyph unicode="\" horiz-adv-x="866" d="M55 1554h197l618 -1843h-202z" />
<glyph unicode="]" horiz-adv-x="722" d="M115 -113h252v1491h-252v176h458v-1843h-458v176z" />
<glyph unicode="^" horiz-adv-x="1163" d="M82 580l420 839h157l420 -839h-213l-264 530h-43l-262 -530h-215z" />
<glyph unicode="_" horiz-adv-x="1042" d="M-2 -135h1046v-160h-1046v160z" />
<glyph unicode="`" horiz-adv-x="598" d="M82 1489h252l182 -297h-205z" />
<glyph unicode="a" horiz-adv-x="1171" d="M82 315q0 51 14 99.5t45.5 94.5t78.5 80.5t118 55.5t158 21h307v30q0 90 -53.5 140.5t-165.5 50.5q-97 0 -150 -35.5t-59 -97.5h-230q7 146 125 230.5t305 84.5q210 0 330.5 -94.5t120.5 -282.5v-692h-215v96h-49q-97 -123 -307 -123q-173 0 -273 100t-100 242zM315 330 q0 -79 55.5 -123.5t155.5 -44.5q117 0 197 75.5t80 184.5v80h-266q-109 0 -165.5 -44.5t-56.5 -127.5z" />
<glyph unicode="b" horiz-adv-x="1288" d="M160 0v1489h231v-547h49q94 127 299 127q137 0 240.5 -71.5t157 -195t53.5 -280.5q0 -239 -122 -394t-329 -155q-206 0 -307 127h-49v-100h-223zM385 522q0 -72 17 -134t51 -111.5t90.5 -78t130.5 -28.5q138 0 211 97t73 255q0 157 -73 253.5t-211 96.5q-97 0 -164 -50.5 t-96 -127.5t-29 -172z" />
<glyph unicode="c" horiz-adv-x="1163" d="M98 522q0 244 138.5 395.5t377.5 151.5q189 0 308 -93.5t143 -250.5h-229q-51 147 -220 147q-75 0 -131.5 -28t-89.5 -77t-49 -110t-16 -133q0 -74 16.5 -136t49.5 -112t89.5 -78t130.5 -28q192 0 228 164h229q-25 -163 -148.5 -262t-310.5 -99q-239 0 -377.5 152.5 t-138.5 396.5z" />
<glyph unicode="d" horiz-adv-x="1288" d="M98 522q0 157 53.5 280.5t157 195t240.5 71.5q205 0 299 -127h49v547h231v-1489h-223v100h-49q-101 -127 -307 -127q-207 0 -329 155t-122 394zM330 522q0 -158 73 -255t211 -97q74 0 130.5 28.5t90.5 78t51 111.5t17 134q0 95 -29 172t-96 127.5t-164 50.5 q-138 0 -211 -96.5t-73 -253.5z" />
<glyph unicode="e" horiz-adv-x="1193" d="M98 528q0 246 138 393.5t376 147.5q152 0 262.5 -66.5t165.5 -175.5t58 -247v-78h-770q5 -161 79 -246.5t214 -85.5q178 0 227 133h235q-30 -152 -149.5 -241t-315.5 -89q-242 0 -381 153t-139 402zM338 674h522q-11 93 -75.5 152t-174.5 59q-117 0 -183.5 -57 t-88.5 -154z" />
<glyph unicode="f" horiz-adv-x="786" d="M51 846v196h166v97q0 180 101.5 265t285.5 85h117v-197h-115q-82 0 -119.5 -45.5t-37.5 -118.5v-86h272v-196h-272v-846h-232v846h-166z" />
<glyph unicode="g" horiz-adv-x="1288" d="M98 539q0 232 125.5 381t333.5 149q109 0 184.5 -36t114.5 -91h49v100h223v-991q0 -220 -136.5 -349.5t-366.5 -129.5q-210 0 -340 87t-148 249h230q32 -146 254 -146q142 0 209 81t67 225v69h-49q-86 -127 -291 -127q-210 0 -334.5 148.5t-124.5 380.5zM330 539 q0 -149 75.5 -240.5t208.5 -91.5q94 0 161.5 46.5t98.5 120t31 165.5q0 143 -75.5 238t-215.5 95q-133 0 -208.5 -91.5t-75.5 -241.5z" />
<glyph unicode="h" horiz-adv-x="1269" d="M160 0v1489h231v-547h49q90 127 297 127q189 0 288 -110t99 -308v-651h-231v606q0 125 -57.5 190.5t-173.5 65.5q-121 0 -196 -89t-75 -216v-557h-231z" />
<glyph unicode="i" horiz-adv-x="557" d="M160 1266v223h237v-223h-237zM162 0v1042h231v-1042h-231z" />
<glyph unicode="j" horiz-adv-x="579" d="M-82 -213h94q93 0 133.5 46.5t40.5 137.5v1071h232v-1085q0 -184 -99 -275.5t-270 -91.5h-131v197zM182 1266v223h238v-223h-238z" />
<glyph unicode="k" horiz-adv-x="1179" d="M160 0v1489h231v-907l438 460h265l-301 -323l362 -719h-246l-268 524h-49l-201 -221v-303h-231z" />
<glyph unicode="l" horiz-adv-x="550" d="M160 0v1489h231v-1489h-231z" />
<glyph unicode="m" horiz-adv-x="1800" d="M160 0v1042h223v-94h49q77 121 262 121q188 0 271 -127h49q95 127 289 127q178 0 265 -106t87 -297v-666h-232v627q0 119 -43 177t-135 58q-106 0 -163.5 -73.5t-57.5 -194.5v-594h-231v625q0 237 -179 237q-110 0 -166.5 -83t-56.5 -212v-567h-231z" />
<glyph unicode="n" horiz-adv-x="1269" d="M160 0v1042h223v-100h49q94 127 301 127q192 0 291.5 -110t99.5 -308v-651h-231v606q0 256 -231 256q-121 0 -196 -89t-75 -216v-557h-231z" />
<glyph unicode="o" horiz-adv-x="1249" d="M98 522q0 242 142.5 394.5t384.5 152.5t384 -152.5t142 -394.5q0 -243 -142 -396t-384 -153t-384.5 153t-142.5 396zM330 522q0 -150 75.5 -251t219.5 -101t219.5 101t75.5 251q0 70 -18 132t-53 111t-92.5 78t-131.5 29t-131.5 -29t-92.5 -78t-53 -111t-18 -132z" />
<glyph unicode="p" horiz-adv-x="1288" d="M160 -410v1452h223v-100h49q101 127 307 127q138 0 241.5 -72t156.5 -195.5t53 -279.5q0 -242 -122 -395.5t-329 -153.5q-205 0 -299 127h-49v-510h-231zM385 522q0 -72 17 -134t51 -111.5t90.5 -78t130.5 -28.5q138 0 211 97t73 255q0 157 -73 253.5t-211 96.5 q-97 0 -164 -50.5t-96 -127.5t-29 -172z" />
<glyph unicode="q" horiz-adv-x="1288" d="M98 522q0 156 53 279.5t156.5 195.5t241.5 72q206 0 307 -127h49v100h223v-1452h-231v510h-49q-94 -127 -299 -127q-207 0 -329 153.5t-122 395.5zM330 522q0 -158 73 -255t211 -97q74 0 130.5 28.5t90.5 78t51 111.5t17 134q0 95 -29 172t-96 127.5t-164 50.5 q-138 0 -211 -96.5t-73 -253.5z" />
<glyph unicode="r" horiz-adv-x="868" d="M160 0v1042h223v-120h49q91 120 291 120h88v-215h-94q-159 0 -242.5 -87.5t-83.5 -252.5v-487h-231z" />
<glyph unicode="s" horiz-adv-x="1087" d="M80 315h231q25 -149 242 -149q219 0 219 135q0 59 -39 90.5t-131 48.5l-217 37q-124 21 -195 89t-71 186q0 140 108.5 228.5t319.5 88.5q187 0 298.5 -82.5t129.5 -222.5h-232q-18 113 -204 113q-88 0 -138.5 -27t-50.5 -82q0 -49 31.5 -71t101.5 -33l203 -33 q150 -24 234 -104t84 -220q0 -139 -118 -236.5t-329 -97.5q-222 0 -340.5 90.5t-136.5 251.5z" />
<glyph unicode="t" horiz-adv-x="808" d="M51 846v196h166v304h232v-304h245v-196h-245v-508q0 -69 37 -103t122 -34h86v-201h-90q-91 0 -158.5 15t-120.5 49t-80.5 95t-27.5 148v539h-166z" />
<glyph unicode="u" horiz-adv-x="1269" d="M145 391v651h232v-606q0 -256 231 -256q121 0 196 89t75 216v557h231v-1042h-223v100h-49q-94 -127 -301 -127q-192 0 -292 110t-100 308z" />
<glyph unicode="v" horiz-adv-x="1144" d="M45 1042h236l247 -823h95l239 823h236l-324 -1042h-407z" />
<glyph unicode="w" horiz-adv-x="1480" d="M86 1042h221l107 -774h49l151 461h258l150 -463h49l105 776h219l-148 -1042h-315l-166 508h-49l-168 -508h-318z" />
<glyph unicode="x" horiz-adv-x="1183" d="M72 0l311 535l-281 507h244l211 -385h76l217 385h237l-282 -501l307 -541h-252l-229 410h-76l-236 -410h-247z" />
<glyph unicode="y" horiz-adv-x="1159" d="M37 1042h244l290 -628h54l264 628h237l-626 -1452h-236l215 512z" />
<glyph unicode="z" horiz-adv-x="1095" d="M100 0v246l578 551v49h-543v196h848v-243l-575 -553v-49h587v-197h-895z" />
<glyph unicode="{" horiz-adv-x="837" d="M127 541v184h39q76 0 106.5 48t30.5 147v284q0 164 97.5 257t263.5 93h98v-176h-70q-93 0 -137.5 -50t-44.5 -159v-288q0 -94 -34 -150t-91 -74v-49q57 -18 91 -73.5t34 -149.5v-289q0 -109 44.5 -159t137.5 -50h70v-176h-98q-166 0 -263.5 93t-97.5 257v285 q0 99 -30.5 147t-106.5 48h-39z" />
<glyph unicode="|" horiz-adv-x="534" d="M170 -289v1843h195v-1843h-195z" />
<glyph unicode="}" horiz-adv-x="837" d="M76 -113h69q93 0 138 50t45 159v289q0 94 34 149.5t91 73.5v49q-57 18 -91 74t-34 150v288q0 109 -45 159t-138 50h-69v176h98q166 0 263.5 -93t97.5 -257v-284q0 -99 30.5 -147t106.5 -48h39v-184h-39q-76 0 -106.5 -48t-30.5 -147v-285q0 -164 -97.5 -257t-263.5 -93 h-98v176z" />
<glyph unicode="~" horiz-adv-x="1374" d="M170 444q0 171 73 252.5t206 81.5q54 0 110.5 -21t102.5 -51t89.5 -59.5t89 -50.5t83.5 -21q56 0 84 36t28 118h168q0 -171 -73.5 -252.5t-206.5 -81.5q-54 0 -109.5 21t-101.5 50.5t-90 59.5t-89.5 51t-84.5 21q-56 0 -83.5 -36t-27.5 -118h-168z" />
<glyph unicode="&#xa2;" horiz-adv-x="1163" d="M98 522q0 226 121 374.5t332 168.5v141h111v-139q168 -10 273.5 -103.5t129.5 -238.5h-229q-41 131 -174 145v-698q144 14 182 162h229q-23 -155 -132.5 -251t-278.5 -108v-139h-111v141q-211 17 -332 166.5t-121 378.5zM330 524q0 -138 54.5 -233.5t166.5 -114.5v690 q-76 -13 -127 -64t-72.5 -121t-21.5 -157z" />
<glyph unicode="&#xa3;" horiz-adv-x="1312" d="M109 0v209h36q77 0 110.5 46t33.5 136v180h-180v191h180v244q0 210 118 333t330 123q207 0 323 -115t122 -313h-238q-10 215 -203 215q-109 0 -162 -64t-53 -179v-244h441v-191h-441v-155q0 -60 -10 -94.5t-43 -63.5v-49h768v-209h-1132z" />
<glyph unicode="&#xa5;" horiz-adv-x="1298" d="M49 1434h242l330 -670h57l330 670h243l-333 -670h190v-129h-254l-70 -137h324v-129h-340v-369h-238v369h-340v129h326l-70 137h-256v129h193z" />
<glyph unicode="&#xa8;" horiz-adv-x="757" d="M82 1266v223h207v-223h-207zM471 1266v223h205v-223h-205z" />
<glyph unicode="&#xa9;" horiz-adv-x="1748" d="M119 731q0 158 59 298.5t159.5 241.5t240.5 159.5t296 58.5q157 0 297.5 -58.5t241 -159.5t159 -241.5t58.5 -298.5t-58.5 -298.5t-159 -241.5t-241 -159.5t-297.5 -58.5t-297 58.5t-240.5 159.5t-159 241.5t-58.5 298.5zM248 731q0 -179 81 -324.5t224.5 -229 t320.5 -83.5q133 0 250 49t200 134t131 203t48 251q0 134 -48 252t-131 202.5t-200 133.5t-250 49q-177 0 -320.5 -83.5t-224.5 -229t-81 -324.5zM518 729q0 179 99.5 292.5t275.5 113.5q134 0 222.5 -73t107.5 -192h-156q-27 127 -174 127q-112 0 -165.5 -72.5 t-53.5 -195.5q0 -119 54.5 -191.5t164.5 -72.5q77 0 123.5 37.5t58.5 105.5h154q-21 -126 -109.5 -204t-226.5 -78q-176 0 -275.5 113t-99.5 290z" />
<glyph unicode="&#xab;" horiz-adv-x="1251" d="M113 510v152l301 313h252l-342 -365v-47l342 -364h-252zM586 510v152l301 313h252l-342 -365v-47l342 -364h-252z" />
<glyph unicode="&#xad;" horiz-adv-x="786" d="M98 471v203h590v-203h-590z" />
<glyph unicode="&#xae;" horiz-adv-x="1748" d="M119 731q0 158 59 298.5t159.5 241.5t240.5 159.5t296 58.5q157 0 297.5 -58.5t241 -159.5t159 -241.5t58.5 -298.5t-58.5 -298.5t-159 -241.5t-241 -159.5t-297.5 -58.5t-297 58.5t-240.5 159.5t-159 241.5t-58.5 298.5zM248 731q0 -179 81 -324.5t224.5 -229 t320.5 -83.5q133 0 250 49t200 134t131 203t48 251q0 134 -48 252t-131 202.5t-200 133.5t-250 49q-177 0 -320.5 -83.5t-224.5 -229t-81 -324.5zM584 340v780h362q129 0 198.5 -62t69.5 -175q0 -143 -114 -205l121 -338h-156l-109 305h-221v-305h-151zM735 776h189 q137 0 137 105q0 52 -32.5 78t-104.5 26h-189v-209z" />
<glyph unicode="&#xb4;" horiz-adv-x="598" d="M82 1192l182 297h252l-231 -297h-203z" />
<glyph unicode="&#xb8;" horiz-adv-x="573" d="M82 -299h129q15 -49 74 -49q33 0 53 19.5t20 54.5t-20 54t-53 19q-40 0 -64 -24h-117l107 274h98l-63 -168h26q25 19 74 19q63 0 105.5 -46t42.5 -122t-53.5 -130.5t-159.5 -54.5q-91 0 -142.5 44.5t-56.5 109.5z" />
<glyph unicode="&#xbb;" horiz-adv-x="1251" d="M113 199l342 364v47l-342 365h252l301 -313v-152l-301 -311h-252zM586 199l342 364v47l-342 365h252l301 -313v-152l-301 -311h-252z" />
<glyph unicode="&#x2c6;" horiz-adv-x="817" d="M82 1192l223 297h209l221 -297h-186l-119 154h-49l-117 -154h-182z" />
<glyph unicode="&#x2da;" horiz-adv-x="628" d="M82 1405q0 97 68.5 163t164.5 66q97 0 164.5 -65.5t67.5 -163.5q0 -93 -68 -160t-164 -67q-95 0 -164 67.5t-69 159.5zM205 1405q0 -47 31.5 -78t78.5 -31t79 31t32 78t-32 80t-79 33t-78.5 -32.5t-31.5 -80.5z" />
<glyph unicode="&#x2dc;" horiz-adv-x="839" d="M82 1200q0 135 51.5 207t149.5 72q44 0 87.5 -20.5t72.5 -45t63.5 -45t62.5 -20.5q39 0 53.5 34.5t14.5 96.5h121q0 -136 -51 -207.5t-150 -71.5q-44 0 -87.5 20.5t-72.5 45t-63 45t-62 20.5q-69 0 -69 -131h-121z" />
<glyph unicode="&#x401;" horiz-adv-x="1349" d="M178 0v1462h1051v-223h-805v-377h637v-219h-637v-420h831v-223h-1077zM399 1626v209h207v-209h-207zM788 1626v209h205v-209h-205z" />
<glyph unicode="&#x402;" horiz-adv-x="1665" d="M35 1245v217h1159v-217h-514v-399q149 33 342 33q146 0 253.5 -36.5t169 -101t90 -143.5t28.5 -174q0 -226 -130.5 -338.5t-359.5 -112.5q-81 0 -108 9v223q19 -8 88 -8q264 0 264 225q0 111 -78 172t-264 61q-167 0 -295 -32v-623h-246v1245h-399z" />
<glyph unicode="&#x403;" horiz-adv-x="1292" d="M178 0v1462h1028v-223h-782v-1239h-246zM549 1550l182 297h252l-231 -297h-203z" />
<glyph unicode="&#x404;" horiz-adv-x="1486" d="M106 731q0 221 78.5 391t235 268.5t371.5 98.5q227 0 382 -113.5t197 -304.5h-256q-74 197 -328 197q-185 0 -290 -114t-127 -298h610v-219h-612q13 -196 121.5 -319t302.5 -123q133 0 220.5 58t116.5 163h258q-33 -198 -192.5 -320.5t-400.5 -122.5q-215 0 -372 99.5 t-236 269.5t-79 389z" />
<glyph unicode="&#x405;" horiz-adv-x="1386" d="M94 428h250q44 -240 367 -240q140 0 226.5 59t86.5 165q0 96 -56.5 145.5t-164.5 71.5l-285 55q-175 33 -269.5 129t-94.5 256q0 88 35.5 164t101 133t167.5 90t228 33q232 0 380 -111.5t173 -300.5h-250q-24 100 -98 148.5t-209 48.5q-122 0 -201.5 -51t-79.5 -148 q0 -44 16.5 -76t48.5 -52t66.5 -32t81.5 -20q33 -7 275 -53q383 -84 383 -420q0 -91 -36 -171t-105 -142.5t-180 -99t-251 -36.5q-262 0 -423.5 124.5t-182.5 330.5z" />
<glyph unicode="&#x406;" horiz-adv-x="622" d="M188 0v1462h246v-1462h-246z" />
<glyph unicode="&#x407;" horiz-adv-x="622" d="M16 1626v209h207v-209h-207zM188 0v1462h246v-1462h-246zM406 1626v209h204v-209h-204z" />
<glyph unicode="&#x408;" horiz-adv-x="1214" d="M68 453h245q10 -128 74 -192t176 -64q109 0 170.5 71.5t61.5 210.5v983h245v-983q0 -239 -126.5 -372.5t-352.5 -133.5q-216 0 -348.5 126t-144.5 354z" />
<glyph unicode="&#x409;" horiz-adv-x="2318" d="M35 0v242h45q71 0 114.5 22t77 88t47 190t13.5 326v594h991v-528h369q250 0 387 -122.5t137 -342.5q0 -222 -137 -345.5t-387 -123.5h-615v1239h-516v-377q0 -178 -12 -311t-39 -228.5t-64 -158t-93 -99t-120 -51t-151 -14.5h-47zM1323 217h328q167 0 241 64t74 188 q0 122 -74 185t-241 63h-328v-500z" />
<glyph unicode="&#x40a;" horiz-adv-x="2375" d="M178 0v1462h246v-583h711v583h245v-528h369q250 0 387 -122.5t137 -342.5q0 -222 -137 -345.5t-387 -123.5h-614v653h-711v-653h-246zM1380 217h328q167 0 241 64t74 188q0 122 -74 185t-241 63h-328v-500z" />
<glyph unicode="&#x40b;" horiz-adv-x="1677" d="M35 1245v217h1159v-217h-514v-403q154 37 350 37q84 0 153.5 -9t121 -23t92 -38t67.5 -48t46 -59.5t29 -65t15.5 -72t7 -73.5t1.5 -77v-414h-246v389q0 29 -0.5 44t-3.5 42t-8.5 41.5t-17 36.5t-28 34.5t-42 27t-58.5 22t-78 13t-100 5.5q-156 0 -301 -37v-618h-246v1245 h-399z" />
<glyph unicode="&#x40c;" horiz-adv-x="1460" d="M178 0v1462h246v-598h395l281 598h254l-328 -710l346 -752h-254l-299 641h-395v-641h-246zM612 1571l181 264h260l-232 -264h-209z" />
<glyph unicode="&#x40e;" horiz-adv-x="1355" d="M31 1462h262l373 -708h57l338 708h252l-701 -1462h-250l209 438zM315 1851h189q5 -69 53.5 -111t128.5 -42q81 0 130.5 41.5t55.5 111.5h187q-7 -148 -107.5 -231.5t-265.5 -83.5q-163 0 -263.5 83.5t-107.5 231.5z" />
<glyph unicode="&#x40f;" horiz-adv-x="1554" d="M178 0v1462h246v-1239h709v1239h245v-1462h-477v-358h-246v358h-477z" />
<glyph unicode="&#x410;" horiz-adv-x="1443" d="M39 0l485 1462h394l487 -1462h-252l-135 420h-600l-133 -420h-246zM487 639h459l-186 584h-88z" />
<glyph unicode="&#x411;" horiz-adv-x="1437" d="M178 0v1462h1036v-223h-790v-352h412q238 0 368.5 -116.5t130.5 -326.5t-130.5 -327t-368.5 -117h-658zM424 217h369q158 0 226 59t68 175q0 113 -69 172t-225 59h-369v-465z" />
<glyph unicode="&#x412;" horiz-adv-x="1460" d="M178 0v1462h662q227 0 351 -108t124 -271q0 -98 -40 -174.5t-114 -117.5v-50q88 -39 142.5 -126.5t54.5 -196.5q0 -187 -128 -302.5t-372 -115.5h-680zM424 213h401q148 0 214.5 56.5t66.5 164.5t-66 163.5t-215 55.5h-401v-440zM424 862h393q130 0 188 49.5t58 145.5 t-57.5 144t-188.5 48h-393v-387z" />
<glyph unicode="&#x413;" horiz-adv-x="1292" d="M178 0v1462h1028v-223h-782v-1239h-246z" />
<glyph unicode="&#x414;" horiz-adv-x="1595" d="M31 223h151q178 368 178 897v342h973v-1239h209v-581h-239v358h-1033v-358h-239v581zM434 223h658v1016h-502v-141q0 -289 -43.5 -510t-112.5 -365z" />
<glyph unicode="&#x415;" horiz-adv-x="1349" d="M178 0v1462h1051v-223h-805v-377h637v-219h-637v-420h831v-223h-1077z" />
<glyph unicode="&#x416;" horiz-adv-x="2154" d="M102 0l310 741l-291 721h254l241 -608h340v608h242v-608h340l242 608h254l-291 -721l309 -741h-254l-260 631h-340v-631h-242v631h-340l-260 -631h-254z" />
<glyph unicode="&#x417;" horiz-adv-x="1388" d="M88 424h258q57 -227 367 -227q144 0 230.5 61t86.5 168q0 221 -293 221h-225v219h225q127 0 184.5 55.5t57.5 143.5q0 96 -77.5 148.5t-199.5 52.5q-262 0 -303 -197h-254q25 197 173 308.5t387 111.5q246 0 386 -111.5t140 -281.5q0 -211 -152 -293v-49 q207 -83 207 -336q0 -91 -38.5 -171t-109.5 -141.5t-181.5 -97t-245.5 -35.5q-280 0 -436.5 119t-186.5 332z" />
<glyph unicode="&#x418;" horiz-adv-x="1589" d="M178 0v1462h234v-1138h49l604 1138h348v-1462h-233v1139h-50l-604 -1139h-348z" />
<glyph unicode="&#x419;" horiz-adv-x="1589" d="M178 0v1462h234v-1138h49l604 1138h348v-1462h-233v1139h-50l-604 -1139h-348zM424 1851h188q5 -69 54 -111t129 -42q81 0 130.5 41.5t55.5 111.5h186q-7 -148 -107 -231.5t-265 -83.5q-163 0 -263.5 83.5t-107.5 231.5z" />
<glyph unicode="&#x41a;" horiz-adv-x="1431" d="M178 0v1462h246v-598h395l281 598h254l-328 -710l346 -752h-254l-299 641h-395v-641h-246z" />
<glyph unicode="&#x41b;" horiz-adv-x="1521" d="M35 0v242h45q48 0 81 9t63 34t49 69.5t33 117t20 175.5t6 244v571h1014v-1462h-246v1239h-539v-377q0 -178 -12 -311t-39 -228.5t-64 -158t-93 -99t-120 -51t-151 -14.5h-47z" />
<glyph unicode="&#x41c;" horiz-adv-x="1785" d="M178 0v1462h389l303 -637h50l299 637h391v-1462h-234v1169h-49l-309 -641h-250l-307 641h-49v-1169h-234z" />
<glyph unicode="&#x41d;" horiz-adv-x="1576" d="M178 0v1462h246v-594h731v594h246v-1462h-246v639h-731v-639h-246z" />
<glyph unicode="&#x41e;" horiz-adv-x="1607" d="M106 731q0 161 46 298.5t132.5 240t220 161t300.5 58.5q166 0 299.5 -58.5t219.5 -161t131.5 -240t45.5 -298.5t-45.5 -298.5t-131.5 -240t-219.5 -161t-299.5 -58.5q-167 0 -300.5 58.5t-220 161t-132.5 240t-46 298.5zM356 731q0 -111 27 -206t80.5 -169t141 -116.5 t200.5 -42.5q112 0 199.5 42.5t140 116.5t79.5 169t27 206t-27 206t-79.5 169.5t-140 117t-199.5 42.5q-113 0 -200.5 -42.5t-141 -117t-80.5 -169.5t-27 -206z" />
<glyph unicode="&#x41f;" horiz-adv-x="1560" d="M178 0v1462h1206v-1462h-245v1239h-715v-1239h-246z" />
<glyph unicode="&#x420;" horiz-adv-x="1435" d="M178 0v1462h643q244 0 378 -119t134 -331q0 -216 -133.5 -336.5t-378.5 -120.5h-397v-555h-246zM424 772h360q158 0 228.5 61t70.5 177q0 117 -70 176t-229 59h-360v-473z" />
<glyph unicode="&#x421;" horiz-adv-x="1490" d="M106 731q0 221 80 391.5t238 268.5t373 98q230 0 383.5 -117t193.5 -315h-258q-36 105 -113.5 157t-205.5 52q-110 0 -195.5 -42.5t-138.5 -117t-80 -169.5t-27 -206t27 -206t79 -169t137.5 -116.5t195.5 -42.5q134 0 221.5 63.5t116.5 181.5h258q-38 -212 -195 -340.5 t-401 -128.5q-215 0 -372.5 98t-237 268.5t-79.5 391.5z" />
<glyph unicode="&#x422;" horiz-adv-x="1251" d="M35 1245v217h1182v-217h-467v-1245h-246v1245h-469z" />
<glyph unicode="&#x423;" horiz-adv-x="1355" d="M31 1462h262l373 -708h57l338 708h252l-701 -1462h-250l209 438z" />
<glyph unicode="&#x424;" horiz-adv-x="1792" d="M88 752q0 285 180.5 436t487.5 151h20v170h238v-170h22q201 0 349 -64.5t232.5 -198.5t84.5 -324q0 -147 -48 -260t-136.5 -184.5t-209.5 -107.5t-272 -36h-22v-191h-238v191h-20q-121 0 -223.5 22.5t-185 69.5t-140 116.5t-88.5 165.5t-31 214zM334 752q0 -187 111 -281 t311 -94h20v749h-20q-201 0 -311.5 -92t-110.5 -282zM1014 377h22q198 0 310 94t112 281t-112 280.5t-310 93.5h-22v-749z" />
<glyph unicode="&#x425;" horiz-adv-x="1374" d="M41 0l420 770l-361 692h258l295 -559h70l301 559h256l-367 -684l420 -778h-276l-336 633h-70l-344 -633h-266z" />
<glyph unicode="&#x426;" horiz-adv-x="1640" d="M178 0v1462h246v-1239h706v1239h246v-1239h211v-581h-241v358h-1168z" />
<glyph unicode="&#x427;" horiz-adv-x="1417" d="M113 1020v442h245v-418q0 -29 0.5 -44t3.5 -42t8.5 -41.5t17 -36.5t28 -34.5t42 -27t58.5 -22t78 -13t100 -5.5q156 0 301 37v647h246v-1462h-246v592q-154 -37 -350 -37q-84 0 -153.5 9t-121 23t-92 38t-67 48t-45.5 59.5t-29 64.5t-16 72t-7 74t-1 77z" />
<glyph unicode="&#x428;" horiz-adv-x="2109" d="M178 0v1462h240v-1239h518v1239h240v-1239h518v1239h239v-1462h-1755z" />
<glyph unicode="&#x429;" horiz-adv-x="2195" d="M178 0v1462h240v-1239h518v1239h240v-1239h518v1239h239v-1239h209v-581h-239v358h-1725z" />
<glyph unicode="&#x42a;" horiz-adv-x="1642" d="M10 1239v223h619v-528h387q251 0 387.5 -122t136.5 -343q0 -222 -136.5 -345.5t-387.5 -123.5h-633v1239h-373zM629 217h346q167 0 241 64t74 188q0 122 -74 185t-241 63h-346v-500z" />
<glyph unicode="&#x42b;" horiz-adv-x="1900" d="M178 0v1462h246v-528h348q251 0 388.5 -122.5t137.5 -342.5q0 -222 -137.5 -345.5t-388.5 -123.5h-594zM424 217h309q167 0 241.5 64t74.5 188q0 122 -74.5 185t-241.5 63h-309v-500zM1477 0v1462h247v-1462h-247z" />
<glyph unicode="&#x42c;" horiz-adv-x="1437" d="M178 0v1462h246v-528h387q250 0 387 -122.5t137 -342.5q0 -222 -137 -345.5t-387 -123.5h-633zM424 217h346q167 0 241 64t74 188q0 122 -74 185t-241 63h-346v-500z" />
<glyph unicode="&#x42d;" horiz-adv-x="1474" d="M88 416h258q29 -105 117 -163t221 -58q194 0 302.5 123t121.5 319h-612v219h610q-22 184 -127.5 298t-290.5 114q-254 0 -328 -197h-256q42 191 197.5 304.5t382.5 113.5q162 0 292 -57t215.5 -158t131 -239.5t45.5 -303.5q0 -163 -46 -301.5t-131.5 -240t-216 -159 t-292.5 -57.5q-241 0 -401 122.5t-193 320.5z" />
<glyph unicode="&#x42e;" horiz-adv-x="2168" d="M178 0v1462h246v-594h281q16 134 68.5 246.5t136 196.5t204 131t264.5 47q163 0 293.5 -58.5t215.5 -161t130 -240t45 -298.5t-45 -298.5t-130 -240t-215.5 -161t-293.5 -58.5q-152 0 -276.5 51t-208 141t-133 210.5t-62.5 263.5h-274v-639h-246zM944 731q0 -111 26 -206 t77.5 -169t136.5 -116.5t194 -42.5q108 0 192 42.5t135.5 116.5t78 169t26.5 206t-26.5 206t-78 169.5t-135.5 117t-192 42.5q-109 0 -194 -42.5t-136.5 -117t-77.5 -169.5t-26 -206z" />
<glyph unicode="&#x42f;" horiz-adv-x="1466" d="M119 0l225 639q-219 112 -219 383q0 208 130.5 324t367.5 116h667v-1462h-246v582h-339q-101 0 -130 4l-206 -586h-250zM375 1020q0 -109 66.5 -167t215.5 -58h387v450h-387q-151 0 -216.5 -56t-65.5 -169z" />
<glyph unicode="&#x430;" horiz-adv-x="1171" d="M82 315q0 51 14 99.5t45.5 94.5t78.5 80.5t118 55.5t158 21h307v30q0 90 -53.5 140.5t-165.5 50.5q-97 0 -150 -35.5t-59 -97.5h-230q7 146 125 230.5t305 84.5q210 0 330.5 -94.5t120.5 -282.5v-692h-215v96h-49q-97 -123 -307 -123q-173 0 -273 100t-100 242zM315 330 q0 -79 55.5 -123.5t155.5 -44.5q117 0 197 75.5t80 184.5v80h-266q-109 0 -165.5 -44.5t-56.5 -127.5z" />
<glyph unicode="&#x431;" horiz-adv-x="1257" d="M98 610q0 93 6.5 171t22 162t45.5 151t74 124.5t111.5 95.5t152.5 52l272 45q58 8 78.5 22.5t24.5 55.5h198q-3 -51 -11.5 -88t-29.5 -74.5t-63 -61.5t-105 -34l-331 -53q-117 -19 -175.5 -94t-80.5 -207h49q59 76 138.5 109.5t191.5 33.5q226 0 359.5 -147.5 t133.5 -376.5q0 -149 -63.5 -267t-184.5 -187t-280 -69q-254 0 -393.5 164t-139.5 473zM332 502q0 -90 30.5 -163t99.5 -121t167 -48q97 0 165.5 48t99 121t30.5 163q0 139 -75.5 233t-219.5 94q-145 0 -221 -94t-76 -233z" />
<glyph unicode="&#x432;" horiz-adv-x="1202" d="M160 0v1042h557q158 0 244 -70t86 -194q0 -70 -34 -123.5t-83 -79.5v-47q78 -21 126 -83t48 -158q0 -140 -95 -213.5t-274 -73.5h-575zM387 176h305q178 0 178 137q0 140 -178 140h-305v-277zM387 621h281q77 0 112 34t35 88q0 56 -35 89.5t-112 33.5h-281v-245z" />
<glyph unicode="&#x433;" horiz-adv-x="1034" d="M160 0v1042h813v-196h-582v-846h-231z" />
<glyph unicode="&#x434;" horiz-adv-x="1368" d="M37 197h147q109 262 109 553v292h833v-845h189v-490h-221v293h-836v-293h-221v490zM410 197h485v649h-391v-98q0 -317 -94 -551z" />
<glyph unicode="&#x435;" horiz-adv-x="1193" d="M98 528q0 246 138 393.5t376 147.5q152 0 262.5 -66.5t165.5 -175.5t58 -247v-78h-770q5 -161 79 -246.5t214 -85.5q178 0 227 133h235q-30 -152 -149.5 -241t-315.5 -89q-242 0 -381 153t-139 402zM338 674h522q-11 93 -75.5 152t-174.5 59q-117 0 -183.5 -57 t-88.5 -154z" />
<glyph unicode="&#x436;" horiz-adv-x="1697" d="M76 0l241 537l-227 505h236l184 -411h231v411h217v-411h232l182 411h236l-226 -505l242 -537h-240l-194 434h-232v-434h-217v434h-231l-197 -434h-237z" />
<glyph unicode="&#x437;" horiz-adv-x="1126" d="M78 311h217q42 -141 266 -141q107 0 167 33.5t60 103.5q0 65 -45 97t-151 32h-178v189h168q176 0 176 123q0 61 -54 92.5t-149 31.5q-196 0 -223 -133h-215q17 159 137.5 244.5t312.5 85.5q195 0 307.5 -84.5t112.5 -210.5q0 -82 -30 -134t-76 -71v-49q139 -42 139 -225 q0 -139 -122 -230.5t-329 -91.5q-223 0 -346.5 89t-144.5 249z" />
<glyph unicode="&#x438;" horiz-adv-x="1290" d="M160 0v1042h225v-688h49l428 688h268v-1042h-225v688h-49l-434 -688h-262z" />
<glyph unicode="&#x439;" horiz-adv-x="1290" d="M160 0v1042h225v-688h49l428 688h268v-1042h-225v688h-49l-434 -688h-262zM297 1477h182q5 -69 45 -108.5t119 -39.5t119 39.5t45 108.5h182q-8 -144 -97.5 -223.5t-248.5 -79.5t-248.5 79.5t-97.5 223.5z" />
<glyph unicode="&#x43a;" horiz-adv-x="1200" d="M160 0v1042h231v-409h273l208 409h238l-256 -501l270 -541h-243l-222 436h-268v-436h-231z" />
<glyph unicode="&#x43b;" horiz-adv-x="1286" d="M47 0v219h37q108 0 153.5 86.5t45.5 315.5v421h843v-1042h-231v846h-399v-232q0 -229 -45 -364.5t-133.5 -192.5t-233.5 -57h-37z" />
<glyph unicode="&#x43c;" horiz-adv-x="1490" d="M160 0v1042h329l234 -456h49l232 456h327v-1042h-225v750h-49l-203 -392h-217l-203 392h-49v-750h-225z" />
<glyph unicode="&#x43d;" horiz-adv-x="1286" d="M160 0v1042h231v-409h504v409h231v-1042h-231v436h-504v-436h-231z" />
<glyph unicode="&#x43e;" horiz-adv-x="1249" d="M98 522q0 242 142.5 394.5t384.5 152.5t384 -152.5t142 -394.5q0 -243 -142 -396t-384 -153t-384.5 153t-142.5 396zM330 522q0 -150 75.5 -251t219.5 -101t219.5 101t75.5 251q0 70 -18 132t-53 111t-92.5 78t-131.5 29t-131.5 -29t-92.5 -78t-53 -111t-18 -132z" />
<glyph unicode="&#x43f;" horiz-adv-x="1277" d="M160 0v1042h958v-1042h-231v846h-496v-846h-231z" />
<glyph unicode="&#x440;" horiz-adv-x="1288" d="M160 -410v1452h223v-100h49q101 127 307 127q138 0 241.5 -72t156.5 -195.5t53 -279.5q0 -242 -122 -395.5t-329 -153.5q-205 0 -299 127h-49v-510h-231zM385 522q0 -72 17 -134t51 -111.5t90.5 -78t130.5 -28.5q138 0 211 97t73 255q0 157 -73 253.5t-211 96.5 q-97 0 -164 -50.5t-96 -127.5t-29 -172z" />
<glyph unicode="&#x441;" horiz-adv-x="1163" d="M98 522q0 244 138.5 395.5t377.5 151.5q189 0 308 -93.5t143 -250.5h-229q-51 147 -220 147q-75 0 -131.5 -28t-89.5 -77t-49 -110t-16 -133q0 -74 16.5 -136t49.5 -112t89.5 -78t130.5 -28q192 0 228 164h229q-25 -163 -148.5 -262t-310.5 -99q-239 0 -377.5 152.5 t-138.5 396.5z" />
<glyph unicode="&#x442;" horiz-adv-x="1056" d="M61 846v196h934v-196h-350v-846h-231v846h-353z" />
<glyph unicode="&#x443;" horiz-adv-x="1159" d="M37 1042h244l290 -628h54l264 628h237l-626 -1452h-236l215 512z" />
<glyph unicode="&#x444;" horiz-adv-x="1533" d="M98 522q0 229 139 372.5t386 147.5h30v447h228v-447h30q247 -4 386 -147t139 -373q0 -241 -146.5 -381.5t-408.5 -140.5v-410h-228v410h-24q-249 0 -390 144.5t-141 377.5zM326 522q0 -144 77.5 -240t223.5 -96h26v670h-24q-147 0 -225 -95.5t-78 -238.5zM881 186h22 q148 0 226.5 96t78.5 240q0 92 -32 166t-102.5 121t-170.5 47h-22v-670z" />
<glyph unicode="&#x445;" horiz-adv-x="1183" d="M72 0l311 535l-281 507h244l211 -385h76l217 385h237l-282 -501l307 -541h-252l-229 410h-76l-236 -410h-247z" />
<glyph unicode="&#x446;" horiz-adv-x="1349" d="M160 0v1042h231v-845h488v845h231v-845h186v-490h-219v293h-917z" />
<glyph unicode="&#x447;" horiz-adv-x="1181" d="M100 711v331h232v-301q0 -34 2.5 -54.5t15 -47t35.5 -41.5t67.5 -26t108.5 -11q106 0 227 25v456h234v-1042h-234v393q-137 -28 -292 -28q-77 0 -137.5 10.5t-101.5 27.5t-70.5 44.5t-46 54.5t-26 65.5t-12 70t-2.5 73.5z" />
<glyph unicode="&#x448;" horiz-adv-x="1710" d="M160 0v1042h225v-845h358v845h224v-845h358v845h225v-1042h-1390z" />
<glyph unicode="&#x449;" horiz-adv-x="1792" d="M160 0v1042h225v-845h358v845h224v-845h358v845h225v-845h189v-490h-221v293h-1358z" />
<glyph unicode="&#x44a;" horiz-adv-x="1339" d="M37 846v196h536v-323h281q196 0 302 -93.5t106 -260.5q0 -170 -106.5 -267.5t-301.5 -97.5h-512v846h-305zM573 197h248q113 0 160 42.5t47 125.5q0 84 -46.5 125.5t-160.5 41.5h-248v-335z" />
<glyph unicode="&#x44b;" horiz-adv-x="1609" d="M160 0v1042h231v-323h260q196 0 301 -93.5t105 -260.5q0 -170 -105.5 -267.5t-300.5 -97.5h-491zM391 197h227q113 0 160 42.5t47 125.5q0 84 -46.5 125.5t-160.5 41.5h-227v-335zM1219 0v1042h231v-1042h-231z" />
<glyph unicode="&#x44c;" horiz-adv-x="1155" d="M160 0v1042h231v-323h281q196 0 300.5 -93t104.5 -261q0 -170 -105 -267.5t-300 -97.5h-512zM391 197h248q113 0 160 42.5t47 125.5q0 84 -46.5 125.5t-160.5 41.5h-248v-335z" />
<glyph unicode="&#x44d;" horiz-adv-x="1177" d="M96 317h221q35 -147 246 -147q125 0 197.5 71.5t83.5 192.5h-416v189h414q-12 115 -83 182t-196 67q-194 0 -235 -133h-219q30 150 151.5 240t304.5 90q235 0 374.5 -151.5t139.5 -395.5q0 -247 -139.5 -398t-376.5 -151q-185 0 -311 95t-156 249z" />
<glyph unicode="&#x44e;" horiz-adv-x="1730" d="M160 0v1042h227v-407h219q30 194 166 314t340 120q234 0 377 -155t143 -392q0 -155 -63 -279.5t-182.5 -197t-274.5 -72.5q-212 0 -349.5 129t-162.5 336h-213v-438h-227zM821 522q0 -97 30 -174.5t97.5 -127.5t163.5 -50q141 0 215 101t74 251q0 70 -17.5 132t-52 111 t-91 78t-128.5 29q-73 0 -130 -29t-91.5 -78.5t-52 -111t-17.5 -131.5z" />
<glyph unicode="&#x44f;" horiz-adv-x="1202" d="M115 0l168 430q-158 84 -158 279q0 157 102.5 245t292.5 88h524v-1042h-231v379h-246q-48 0 -73 2l-146 -381h-233zM354 707q0 -72 43 -110t142 -38h274v295h-274q-99 0 -142 -37.5t-43 -109.5z" />
<glyph unicode="&#x451;" horiz-adv-x="1193" d="M98 528q0 246 138 393.5t376 147.5q152 0 262.5 -66.5t165.5 -175.5t58 -247v-78h-770q5 -161 79 -246.5t214 -85.5q178 0 227 133h235q-30 -152 -149.5 -241t-315.5 -89q-242 0 -381 153t-139 402zM315 1251v224h207v-224h-207zM338 674h522q-11 93 -75.5 152t-174.5 59 q-117 0 -183.5 -57t-88.5 -154zM705 1251v224h204v-224h-204z" />
<glyph unicode="&#x452;" horiz-adv-x="1290" d="M53 1169v150h158v170h231v-170h392v-150h-392v-307h50q90 127 296 127q189 0 288.5 -110t99.5 -308v-614q0 -184 -99 -275.5t-270 -91.5h-131v197h94q93 0 133.5 46.5t40.5 137.5v555q0 125 -57.5 190.5t-173.5 65.5q-121 0 -196 -89t-75 -216v-477h-231v1169h-158z" />
<glyph unicode="&#x453;" horiz-adv-x="1034" d="M160 0v1042h813v-196h-582v-846h-231zM410 1192l182 297h252l-232 -297h-202z" />
<glyph unicode="&#x454;" horiz-adv-x="1171" d="M98 522q0 244 139.5 395.5t374.5 151.5q183 0 305 -90t152 -240h-219q-41 133 -236 133q-125 0 -195.5 -67t-82.5 -182h414v-189h-416q11 -121 83 -192.5t197 -71.5q212 0 246 147h221q-30 -154 -156 -249t-311 -95q-237 0 -376.5 151t-139.5 398z" />
<glyph unicode="&#x455;" horiz-adv-x="1087" d="M80 315h231q25 -149 242 -149q219 0 219 135q0 59 -39 90.5t-131 48.5l-217 37q-124 21 -195 89t-71 186q0 140 108.5 228.5t319.5 88.5q187 0 298.5 -82.5t129.5 -222.5h-232q-18 113 -204 113q-88 0 -138.5 -27t-50.5 -82q0 -49 31.5 -71t101.5 -33l203 -33 q150 -24 234 -104t84 -220q0 -139 -118 -236.5t-329 -97.5q-222 0 -340.5 90.5t-136.5 251.5z" />
<glyph unicode="&#x456;" horiz-adv-x="557" d="M160 1266v223h237v-223h-237zM162 0v1042h231v-1042h-231z" />
<glyph unicode="&#x457;" horiz-adv-x="557" d="M-16 1266v223h206v-223h-206zM162 0v1042h231v-1042h-231zM373 1266v223h205v-223h-205z" />
<glyph unicode="&#x458;" horiz-adv-x="579" d="M-82 -213h94q93 0 133.5 46.5t40.5 137.5v1071h232v-1085q0 -184 -99 -275.5t-270 -91.5h-131v197zM182 1266v223h238v-223h-238z" />
<glyph unicode="&#x459;" horiz-adv-x="1857" d="M47 0v219h37q108 0 153.5 86.5t45.5 315.5v421h825v-323h266q196 0 301 -93.5t105 -260.5q0 -170 -105.5 -267.5t-300.5 -97.5h-497v846h-381v-232q0 -229 -45 -364.5t-133.5 -192.5t-233.5 -57h-37zM1108 197h233q113 0 160 42.5t47 125.5q0 84 -46.5 125.5t-160.5 41.5 h-233v-335z" />
<glyph unicode="&#x45a;" horiz-adv-x="1841" d="M160 0v1042h231v-409h469v409h232v-323h266q196 0 300.5 -93t104.5 -261q0 -170 -105 -267.5t-300 -97.5h-498v436h-469v-436h-231zM1092 197h233q113 0 160 42.5t47 125.5q0 84 -46.5 125.5t-160.5 41.5h-233v-335z" />
<glyph unicode="&#x45b;" horiz-adv-x="1318" d="M51 1169v150h158v170h231v-170h391v-150h-391v-307h49q90 127 297 127q189 0 288.5 -110t99.5 -308v-571h-232v526q0 125 -57.5 190.5t-173.5 65.5q-121 0 -196 -89t-75 -216v-477h-231v1169h-158z" />
<glyph unicode="&#x45c;" horiz-adv-x="1185" d="M160 0v1042h231v-409h273l208 409h238l-256 -501l270 -541h-243l-222 436h-268v-436h-231zM481 1192l183 297h251l-231 -297h-203z" />
<glyph unicode="&#x45e;" horiz-adv-x="1159" d="M37 1042h244l290 -628h54l264 628h237l-626 -1452h-236l215 512zM231 1477h183q5 -69 45 -108.5t119 -39.5q153 0 163 148h183q-8 -144 -97.5 -223.5t-248.5 -79.5t-249 80t-98 223z" />
<glyph unicode="&#x45f;" horiz-adv-x="1269" d="M160 0v1042h231v-845h488v845h231v-1042h-365v-293h-221v293h-364z" />
<glyph unicode="&#x490;" horiz-adv-x="1292" d="M178 0v1462h778v307h250v-530h-782v-1239h-246z" />
<glyph unicode="&#x491;" horiz-adv-x="1011" d="M160 0v1042h571v263h219v-459h-559v-846h-231z" />
<glyph unicode="&#x492;" horiz-adv-x="1355" d="M51 629v192h193v641h1026v-223h-781v-418h461v-192h-461v-629h-245v629h-193z" />
<glyph unicode="&#x493;" horiz-adv-x="1073" d="M43 377v174h166v491h803v-196h-572v-295h369v-174h-369v-377h-231v377h-166z" />
<glyph unicode="&#x49a;" horiz-adv-x="1529" d="M178 0v1462h246v-598h395l281 598h254l-328 -710l244 -529h207v-581h-240v358h-119l-299 641h-395v-641h-246z" />
<glyph unicode="&#x49b;" horiz-adv-x="1261" d="M160 0v1042h231v-409h273l208 409h238l-256 -501l174 -344h180v-490h-221v293h-104l-224 436h-268v-436h-231z" />
<glyph unicode="&#x4a2;" horiz-adv-x="1662" d="M178 0v1462h246v-594h731v594h246v-1239h209v-581h-240v358h-215v639h-731v-639h-246z" />
<glyph unicode="&#x4a3;" horiz-adv-x="1366" d="M160 0v1042h231v-409h504v409h231v-845h187v-490h-219v293h-199v436h-504v-436h-231z" />
<glyph unicode="&#x4ae;" horiz-adv-x="1353" d="M33 1462h264l350 -624h58l350 624h264l-520 -923v-539h-246v539z" />
<glyph unicode="&#x4af;" horiz-adv-x="1148" d="M45 1042h236l247 -923h95l239 923h236l-322 -1142h-90v-308h-231v308h-93z" />
<glyph unicode="&#x4b0;" horiz-adv-x="1353" d="M33 1462h264l350 -624h58l350 624h264l-445 -788h300v-193h-375v-481h-246v481h-373v193h297z" />
<glyph unicode="&#x4b1;" horiz-adv-x="1157" d="M45 1042h236l247 -923h95l239 923h236l-293 -1042h192v-168h-311v-240h-231v240h-310v168h189z" />
<glyph unicode="&#x4ba;" horiz-adv-x="1419" d="M178 0v1462h246v-592q154 37 350 37q84 0 153.5 -9t121 -23t92 -38t67.5 -48t46 -59.5t29 -65t15.5 -72t7 -73.5t1.5 -77v-442h-246v418q0 29 -0.5 44t-3.5 42t-8.5 41.5t-17 36.5t-28 34.5t-42 27t-58.5 22t-78 13t-100 5.5q-156 0 -301 -37v-647h-246z" />
<glyph unicode="&#x4bb;" horiz-adv-x="1269" d="M160 0v1489h231v-547h49q90 127 297 127q189 0 288 -110t99 -308v-651h-231v606q0 125 -57.5 190.5t-173.5 65.5q-121 0 -196 -89t-75 -216v-557h-231z" />
<glyph unicode="&#x4d8;" horiz-adv-x="1566" d="M106 768q0 25 5 88h1089q-21 185 -131.5 298.5t-302.5 113.5q-269 0 -334 -197h-256q42 192 198 305t390 113q166 0 299 -58t219.5 -160t132 -240t45.5 -300q0 -161 -44.5 -298.5t-129 -240t-216.5 -161t-296 -58.5q-317 0 -492.5 214t-175.5 581zM356 637 q5 -194 110.5 -318t301.5 -124q104 0 185.5 34t133 94.5t80.5 139.5t35 174h-846z" />
<glyph unicode="&#x4d9;" horiz-adv-x="1193" d="M98 518q0 49 2 72h764q-13 138 -88.5 210t-200.5 72q-97 0 -152 -33t-79 -100h-229q27 151 148 240.5t312 89.5q159 0 278.5 -73t181 -198t61.5 -284q0 -244 -138 -392.5t-374 -148.5q-228 0 -357 142.5t-129 402.5zM326 418q2 -123 69.5 -191.5t190.5 -68.5 q124 0 196 66t82 194h-538z" />
<glyph unicode="&#x4e8;" horiz-adv-x="1607" d="M106 731q0 161 46 298.5t132.5 240t220 161t300.5 58.5q166 0 299.5 -58.5t219.5 -161t131.5 -240t45.5 -298.5t-45.5 -298.5t-131.5 -240t-219.5 -161t-299.5 -58.5q-167 0 -300.5 58.5t-220 161t-132.5 240t-46 298.5zM360 637q18 -197 131 -318.5t314 -121.5 q103 0 183.5 33.5t133 94t84 138.5t41.5 174h-887zM365 856h878q-26 187 -136 298.5t-302 111.5q-195 0 -304.5 -110.5t-135.5 -299.5z" />
<glyph unicode="&#x4e9;" horiz-adv-x="1249" d="M98 522q0 242 142.5 394.5t384.5 152.5t384 -152.5t142 -394.5q0 -243 -142 -396t-384 -153t-384.5 153t-142.5 396zM336 438q14 -121 89 -194.5t200 -73.5t199.5 73.5t88.5 194.5h-577zM336 610h575q-14 116 -88.5 189t-197.5 73t-197 -72.5t-92 -189.5z" />
<glyph unicode="&#x2000;" horiz-adv-x="925" />
<glyph unicode="&#x2001;" horiz-adv-x="1851" />
<glyph unicode="&#x2002;" horiz-adv-x="925" />
<glyph unicode="&#x2003;" horiz-adv-x="1851" />
<glyph unicode="&#x2004;" horiz-adv-x="617" />
<glyph unicode="&#x2005;" horiz-adv-x="462" />
<glyph unicode="&#x2006;" horiz-adv-x="308" />
<glyph unicode="&#x2007;" horiz-adv-x="308" />
<glyph unicode="&#x2008;" horiz-adv-x="231" />
<glyph unicode="&#x2009;" horiz-adv-x="370" />
<glyph unicode="&#x200a;" horiz-adv-x="102" />
<glyph unicode="&#x2010;" horiz-adv-x="786" d="M98 471v203h590v-203h-590z" />
<glyph unicode="&#x2011;" horiz-adv-x="786" d="M98 471v203h590v-203h-590z" />
<glyph unicode="&#x2012;" horiz-adv-x="786" d="M98 471v203h590v-203h-590z" />
<glyph unicode="&#x2013;" horiz-adv-x="1267" d="M94 479v187h1077v-187h-1077z" />
<glyph unicode="&#x2014;" horiz-adv-x="1798" d="M94 479v187h1608v-187h-1608z" />
<glyph unicode="&#x2018;" d="M152 924v319l135 219h143l-135 -219v-45h121v-274h-264z" />
<glyph unicode="&#x2019;" d="M135 924l135 219v45h-120v274h264v-319l-135 -219h-144z" />
<glyph unicode="&#x201a;" d="M135 -264l135 219v45h-120v274h264v-319l-135 -219h-144z" />
<glyph unicode="&#x201c;" horiz-adv-x="972" d="M152 924v319l135 219h143l-135 -219v-45h121v-274h-264zM559 924v319l135 219h144l-136 -219v-45h121v-274h-264z" />
<glyph unicode="&#x201d;" horiz-adv-x="972" d="M135 924l135 219v45h-120v274h264v-319l-135 -219h-144zM543 924l135 219v45h-121v274h264v-319l-135 -219h-143z" />
<glyph unicode="&#x201e;" horiz-adv-x="972" d="M135 -264l135 219v45h-120v274h264v-319l-135 -219h-144zM543 -264l135 219v45h-121v274h264v-319l-135 -219h-143z" />
<glyph unicode="&#x2022;" horiz-adv-x="864" d="M131 729q0 125 88.5 213t212.5 88t212.5 -88t88.5 -213t-88.5 -213t-212.5 -88t-212.5 88t-88.5 213z" />
<glyph unicode="&#x2026;" horiz-adv-x="1658" d="M150 0v274h264v-274h-264zM696 0v274h265v-274h-265zM1243 0v274h264v-274h-264z" />
<glyph unicode="&#x202f;" horiz-adv-x="370" />
<glyph unicode="&#x2039;" horiz-adv-x="778" d="M113 510v152l301 313h252l-342 -365v-47l342 -364h-252z" />
<glyph unicode="&#x203a;" horiz-adv-x="778" d="M113 199l342 364v47l-342 365h252l301 -313v-152l-301 -311h-252z" />
<glyph unicode="&#x205f;" horiz-adv-x="462" />
<glyph unicode="&#x20ac;" horiz-adv-x="1409" d="M59 524l43 129h119q-6 67 0 138h-162l43 129h134q39 258 189 400t372 142q207 0 338.5 -114t162.5 -314h-237q-39 215 -264 215q-131 0 -214.5 -84.5t-109.5 -244.5h475l-43 -129h-446q-5 -74 -2 -138h399l-43 -129h-342q23 -166 107 -252t221 -86q117 0 188 63.5 t88 182.5h234q-30 -213 -164 -336t-348 -123q-228 0 -375.5 141.5t-188.5 409.5h-174z" />
<glyph unicode="&#x2122;" horiz-adv-x="1753" d="M47 1325v137h655v-137h-251v-639h-152v639h-252zM834 686v776h237l148 -329h28l144 329h237v-776h-143v602h-29l-149 -334h-150l-151 334h-27v-602h-145z" />
<glyph unicode="&#x25fc;" horiz-adv-x="1044" d="M0 0v1044h1044v-1044h-1044z" />
</font>
</defs>
</svg>
